<svg width="38" height="38" viewBox="0 0 38 38" fill="none" xmlns="http://www.w3.org/2000/svg">
<g filter="url(#filter0_d_289_18)">
<path fill-rule="evenodd" clip-rule="evenodd" d="M21.9599 1.95952C22.8802 1.03917 24.1795 0.666626 25.667 0.666626H28.3337C29.8211 0.666626 31.1204 1.03917 32.0408 1.95952C32.9611 2.87987 33.3337 4.17915 33.3337 5.66663V8.33329C33.3337 9.82077 32.9611 11.1201 32.0408 12.0404C31.1204 12.9607 29.8211 13.3333 28.3337 13.3333H25.667C24.1795 13.3333 22.8802 12.9607 21.9599 12.0404C21.0395 11.1201 20.667 9.82077 20.667 8.33329V5.66663C20.667 4.17915 21.0395 2.87987 21.9599 1.95952ZM23.3741 3.37373C22.9611 3.78672 22.667 4.48744 22.667 5.66663V8.33329C22.667 9.51248 22.9611 10.2132 23.3741 10.6262C23.7871 11.0392 24.4878 11.3333 25.667 11.3333H28.3337C29.5128 11.3333 30.2136 11.0392 30.6266 10.6262C31.0395 10.2132 31.3337 9.51248 31.3337 8.33329V5.66663C31.3337 4.48744 31.0395 3.78672 30.6266 3.37373C30.2136 2.96075 29.5128 2.66663 28.3337 2.66663H25.667C24.4878 2.66663 23.7871 2.96075 23.3741 3.37373Z" fill="#A4A4A4"/>
<path fill-rule="evenodd" clip-rule="evenodd" d="M5.95989 17.9595C6.88023 17.0392 8.17951 16.6666 9.66699 16.6666H12.3337C13.8211 16.6666 15.1204 17.0392 16.0408 17.9595C16.9611 18.8799 17.3337 20.1791 17.3337 21.6666V24.3333C17.3337 25.8208 16.9611 27.1201 16.0408 28.0404C15.1204 28.9607 13.8211 29.3333 12.3337 29.3333H9.66699C8.17951 29.3333 6.88023 28.9607 5.95989 28.0404C5.03954 27.1201 4.66699 25.8208 4.66699 24.3333V21.6666C4.66699 20.1791 5.03954 18.8799 5.95989 17.9595ZM7.3741 19.3737C6.96111 19.7867 6.66699 20.4874 6.66699 21.6666V24.3333C6.66699 25.5125 6.96111 26.2132 7.3741 26.6262C7.78709 27.0392 8.4878 27.3333 9.66699 27.3333H12.3337C13.5128 27.3333 14.2136 27.0392 14.6266 26.6262C15.0395 26.2132 15.3337 25.5125 15.3337 24.3333V21.6666C15.3337 20.4874 15.0395 19.7867 14.6266 19.3737C14.2136 18.9607 13.5128 18.6666 12.3337 18.6666H9.66699C8.4878 18.6666 7.78709 18.9607 7.3741 19.3737Z" fill="#A4A4A4"/>
<path fill-rule="evenodd" clip-rule="evenodd" d="M11.0003 2.66663C8.60709 2.66663 6.66699 4.60673 6.66699 6.99996C6.66699 9.39319 8.60709 11.3333 11.0003 11.3333C13.3936 11.3333 15.3337 9.39319 15.3337 6.99996C15.3337 4.60673 13.3936 2.66663 11.0003 2.66663ZM4.66699 6.99996C4.66699 3.50216 7.50252 0.666626 11.0003 0.666626C14.4981 0.666626 17.3337 3.50216 17.3337 6.99996C17.3337 10.4978 14.4981 13.3333 11.0003 13.3333C7.50252 13.3333 4.66699 10.4978 4.66699 6.99996Z" fill="#A4A4A4"/>
<path fill-rule="evenodd" clip-rule="evenodd" d="M27.0003 18.6666C24.6071 18.6666 22.667 20.6067 22.667 23C22.667 25.3932 24.6071 27.3333 27.0003 27.3333C29.3936 27.3333 31.3337 25.3932 31.3337 23C31.3337 20.6067 29.3936 18.6666 27.0003 18.6666ZM20.667 23C20.667 19.5022 23.5025 16.6666 27.0003 16.6666C30.4981 16.6666 33.3337 19.5022 33.3337 23C33.3337 26.4978 30.4981 29.3333 27.0003 29.3333C23.5025 29.3333 20.667 26.4978 20.667 23Z" fill="#A4A4A4"/>
</g>
<defs>
<filter id="filter0_d_289_18" x="0.666992" y="0.666626" width="36.6667" height="36.6667" filterUnits="userSpaceOnUse" color-interpolation-filters="sRGB">
<feFlood flood-opacity="0" result="BackgroundImageFix"/>
<feColorMatrix in="SourceAlpha" type="matrix" values="0 0 0 0 0 0 0 0 0 0 0 0 0 0 0 0 0 0 127 0" result="hardAlpha"/>
<feOffset dy="4"/>
<feGaussianBlur stdDeviation="2"/>
<feComposite in2="hardAlpha" operator="out"/>
<feColorMatrix type="matrix" values="0 0 0 0 0 0 0 0 0 0 0 0 0 0 0 0 0 0 0.25 0"/>
<feBlend mode="normal" in2="BackgroundImageFix" result="effect1_dropShadow_289_18"/>
<feBlend mode="normal" in="SourceGraphic" in2="effect1_dropShadow_289_18" result="shape"/>
</filter>
</defs>
</svg>
